<?xml version="1.0" encoding="UTF-8"?><svg id="Layer_1" xmlns="http://www.w3.org/2000/svg" viewBox="0 0 1280 1024"><defs><style>.cls-1{fill:#fff;}.cls-2{fill:#6c682d;}</style></defs><g><path class="cls-2" d="M559.5,1004.5c-64.39,0-126.86-12.61-185.67-37.48-56.8-24.03-107.81-58.42-151.62-102.23-43.81-43.81-78.2-94.82-102.23-151.62-24.87-58.81-37.48-121.28-37.48-185.67s12.61-126.86,37.48-185.67c24.02-56.8,58.42-107.81,102.23-151.62s94.82-78.2,151.62-102.23c58.81-24.87,121.27-37.48,185.67-37.48s126.86,12.61,185.67,37.48c56.8,24.02,107.81,58.42,151.62,102.23,43.81,43.81,78.2,94.82,102.23,151.62,24.87,58.81,37.48,121.27,37.48,185.67s-12.61,126.86-37.48,185.67c-24.03,56.8-58.42,107.81-102.23,151.62-43.81,43.81-94.82,78.2-151.62,102.23-58.81,24.87-121.28,37.48-185.67,37.48Z"/><path d="M559.5,51c64.33,0,126.73,12.6,185.48,37.45,56.74,24,107.7,58.36,151.46,102.12,43.76,43.76,78.12,94.72,102.12,151.46,24.85,58.74,37.45,121.15,37.45,185.48s-12.6,126.73-37.45,185.48c-24,56.74-58.36,107.7-102.12,151.46-43.76,43.76-94.72,78.12-151.46,102.12-58.74,24.85-121.15,37.45-185.48,37.45s-126.73-12.6-185.48-37.45c-56.74-24-107.7-58.36-151.46-102.12-43.76-43.76-78.12-94.72-102.12-151.46-24.85-58.74-37.45-121.15-37.45-185.48s12.6-126.73,37.45-185.48c24-56.74,58.36-107.7,102.12-151.46,43.76-43.76,94.72-78.12,151.46-102.12,58.74-24.85,121.15-37.45,185.48-37.45m0-1c-263.72,0-477.5,213.78-477.5,477.5s213.78,477.5,477.5,477.5,477.5-213.78,477.5-477.5S823.22,50,559.5,50h0Z"/></g><g><path class="cls-1" d="M304.65,440.88v-167.01h111.24c17.64,0,32.22,2.72,43.73,8.17,11.5,5.45,20.05,12.84,25.63,22.17,5.58,9.34,8.38,19.71,8.38,31.12s-3.24,22.22-9.72,31.38c-6.48,9.17-15.64,16.34-27.48,21.52-11.84,5.19-25.8,7.78-41.88,7.78h-46.91v44.86h-62.99Zm62.99-82.21h32.5c9.83,0,17.14-2.16,21.95-6.48,4.8-4.32,7.2-9.94,7.2-16.86,0-7.43-2.24-13.31-6.7-17.63-4.47-4.32-11.39-6.48-20.77-6.48h-34.18v47.46Z"/><path class="cls-1" d="M510.38,440.88v-167.01h62.99v167.01h-62.99Z"/><path class="cls-1" d="M707.07,443.47c-35.74,0-63.05-6.74-81.92-20.23-18.88-13.49-28.31-35.27-28.31-65.35,0-20.75,4.24-37.47,12.73-50.18,8.49-12.71,20.94-21.95,37.36-27.75,16.42-5.79,36.46-8.69,60.14-8.69s43.73,2.9,60.15,8.69c16.42,5.79,28.87,15.04,37.36,27.75,8.49,12.71,12.73,29.43,12.73,50.18,0,30.08-9.5,51.87-28.48,65.35-18.99,13.49-46.24,20.23-81.76,20.23Zm0-41.49c16.08,0,27.75-3.5,35.02-10.5,7.26-7,10.89-18.19,10.89-33.58,0-16.42-3.63-28.05-10.89-34.88-7.26-6.83-18.93-10.24-35.02-10.24s-27.76,3.42-35.01,10.24c-7.26,6.83-10.89,18.46-10.89,34.88,0,15.39,3.63,26.58,10.89,33.58,7.26,7,18.93,10.5,35.01,10.5Z"/><path class="cls-1" d="M380.71,752.08l-82.76-167.01h65.67l50.26,110.48,50.26-110.48h66.01l-82.76,167.01h-66.68Z"/><path class="cls-1" d="M548.58,752.08v-167.01h62.99v167.01h-62.99Z"/><path class="cls-1" d="M641.73,752.08v-167.01h53.61l81.42,88.43v-88.43h62.99v167.01h-53.95l-81.09-88.17v88.17h-62.99Z"/></g></svg>