<?xml version="1.0" encoding="UTF-8"?><svg xmlns="http://www.w3.org/2000/svg" viewBox="0 0 534.5 518"><defs><style>.cls-1{fill:#fff;}.cls-2{fill:#6c682d;}</style></defs><g id="Layer_5"><ellipse class="cls-2" cx="271" cy="254.5" rx="256.5" ry="247"/></g><g id="Layer_6"><g><rect class="cls-1" x="230.5" y="191.27" width="81" height="310.73"/><rect class="cls-1" x="163.5" y="256.84" width="207" height="71.63"/><path class="cls-1" d="M232,181.68c.62-6.63,2.39-16.98,8-28.25,1.44-2.89,8.78-17.18,25-29.26,15.71-11.69,31.08-14.84,43-17.15,30.74-5.95,57.78-1.22,76,4.04"/><path class="cls-1" d="M315,190.76c5.95-11.09,16.94-15.94,20-17.15,5.85-2.32,12.98-2.25,27-2.02,18.02,.3,22.1,1.93,23,0,2.17-4.66-16.9-24.6-41-26.23-5.32-.36-20.46-1.38-30,8.07-7.84,7.76-6.16,16.91-17,24.21-3.95,2.66-6.66,3.13-10,7.06-.63,.74-7.76,9.36-5,16.14,3.35,8.24,19.86,10.27,27,4.04,3.93-3.43,2.07-6.8,6-14.12Z"/><rect class="cls-1" x="336" y="111.06" width="49" height="60.53"/><polygon class="cls-1" points="250.81 215.42 231.77 186.99 334.21 117.18 353.24 145.61 250.81 215.42"/><polygon class="cls-1" points="238.16 193.66 232.1 182.06 264.84 164.66 270.9 176.26 238.16 193.66"/><polygon class="cls-1" points="239.98 193.34 231.07 192.08 233.02 178.09 241.93 179.36 239.98 193.34"/><polygon class="cls-1" points="372.13 328.5 361.25 326.87 371.56 256.68 382.44 258.31 372.13 328.5"/></g></g></svg>